<svg id="epdMzOUXvhE1" xmlns="http://www.w3.org/2000/svg" xmlns:xlink="http://www.w3.org/1999/xlink" viewBox="0 0 784.94682 502.03373" shape-rendering="geometricPrecision" text-rendering="geometricPrecision"><path d="M243.85694,618.51157c3.3177-26.67813,19.85136-52.96384,45.29423-61.64563-10.033961,27.459263-10.031789,57.582654.00613,85.04047c3.90959,10.5753,9.35914,21.9305,5.68165,32.5888-2.28809,6.63189-7.88559,11.70586-14.14246,14.87849-6.25726,3.17263-13.20152,4.68476-20.05886,6.16664l-1.34957,1.11617c-10.88593-24.581-18.74883-51.46681-15.43112-78.14494Z" transform="translate(-208.027-198.405)" fill="#f0f0f0"/><path d="M289.40364,557.37038c-14.816722,16.601704-24.025748,37.449932-26.31905,59.58345-.578283,4.756074-.403268,9.573575.5186,14.27515c1.046014,4.550917,3.291612,8.738704,6.50347,12.12824c2.93126,3.22058,6.30257,6.17543,8.39991,10.05247c2.111823,4.046226,2.396397,8.801411.78221,13.07062-1.85174,5.31109-5.5014,9.64009-9.21759,13.74946-4.12611,4.56266-8.48414,9.23647-10.238,15.28536-.21251.7329-1.33731.3603-1.12512-.3715c3.0515-10.524,13.26755-16.50187,18.13956-25.98072c2.27337-4.423,3.22758-9.55792,1.09633-14.22685-1.86368-4.08279-5.3376-7.13283-8.33374-10.36808-3.181744-3.260655-5.516683-7.250797-6.80085-11.62187-1.158264-4.639463-1.518577-9.442201-1.06551-14.20255.849069-10.733362,3.380487-21.266478,7.50152-31.21349c4.640347-11.378526,11.192951-21.879412,19.37431-31.04833.5066-.56729,1.2873.32505.784.88864Z" transform="translate(-208.027-198.405)" fill="#fff"/><path d="M263.40352,609.78346c-7.561874-1.83589-12.680306-8.879723-12.09073-16.6389.06037-.76,1.24414-.70184,1.18369.05912-.562565,7.226993,4.224274,13.786273,11.27852,15.45466.74175.17635.366,1.30046-.37149,1.12512Z" transform="translate(-208.027-198.405)" fill="#fff"/><path d="M268.40533,641.92c6.612724-3.948401,11.494301-10.244154,13.67134-17.63188.2151-.73213,1.34-.35975,1.12512.37149-2.27983,7.683613-7.373182,14.224986-14.26357,18.31865-.657.38974-1.18634-.67064-.53289-1.05826Z" transform="translate(-208.027-198.405)" fill="#fff"/><path d="M274.98494,577.274c2.732079,1.298281,5.933875,1.135749,8.52044-.43252.65176-.39787,1.18041.663.5329,1.05826-2.864554,1.718634-6.39471,1.905681-9.42484.49938-.303291-.111028-.468205-.438526-.37681-.7483.103926-.309536.437747-.477636.74831-.37682Z" transform="translate(-208.027-198.405)" fill="#fff"/><path d="M366.70462,604.51633c-.39991.26-.79981.52-1.2002.79-5.358309,3.523499-10.421513,7.476484-15.13965,11.81995-.37011.33-.74023.67005-1.10009,1.01-11.255501,10.585563-20.447888,23.168801-27.10987,37.11005-2.645855,5.549988-4.865637,11.293228-6.64013,17.18-2.4502,8.13-4.46,17.14-9.31006,23.79-.498227.699478-1.039303,1.367424-1.62012,2h-43.83008c-.09961-.05-.19971-.09-.2998-.14l-1.75.08c.07031-.31.1499-.63.22021-.94.04-.18.08985-.36.12988-.54.02979-.12.06006-.24.08008-.35.00977-.04.02-.08.02979-.11.02-.11.05029-.21.07031-.31q.65991-2.685,1.35986-5.37c0-.01,0-.01.00977-.02c3.59033-13.63,8.3501-27.08,15-39.38.20019-.37.3999-.75.62012-1.12c3.02823-5.527627,6.503175-10.798506,10.39013-15.76c2.137115-2.709918,4.410044-5.309912,6.81006-7.79c6.213605-6.396229,13.394622-11.775296,21.27979-15.94c15.72021-8.3,33.91992-11.48,50.72021-6.41.42969.13004.8501.25998,1.27979.4Z" transform="translate(-208.027-198.405)" fill="#f0f0f0"/><path d="M366.60608,605.07262c-21.825696,4.334839-41.730662,15.436511-56.88764,31.72816-3.325217,3.449293-6.085949,7.401172-8.18056,11.71015-1.904783,4.263422-2.633136,8.959137-2.10938,13.59925.40144,4.33627,1.31422,8.72532.65458,13.08366-.749928,4.502152-3.385666,8.470236-7.24487,10.9071-4.67615,3.12574-10.19656,4.38485-15.63784,5.42855-6.04151,1.15883-12.33511,2.26677-17.37736,6.04049-.61094.45724-1.2847-.51747-.67468-.974c8.77264-6.56563,20.52866-5.18785,30.12561-9.82289c4.47811-2.1628,8.33157-5.68824,9.44091-10.69928.97007-4.38194.03268-8.90876-.41173-13.29582-.5773-4.519082-.039274-9.110784,1.56708-13.374c1.868461-4.401708,4.47235-8.453359,7.70016-11.98145c7.140155-8.058794,15.503014-14.94481,24.78222-20.40579c10.555717-6.291306,22.109862-10.730558,34.16254-13.12569.746-.14794.83213,1.03459.091,1.18156Z" transform="translate(-208.027-198.405)" fill="#fff"/><path d="M314.29014,631.26766c-4.932401-6.018624-4.778307-14.724381.364-20.56468.50575-.57044,1.41593.18867.90951.75986-4.800323,5.431654-4.927433,13.550883-.29949,19.13014.48607.58739-.49073,1.25871-.974.67468Z" transform="translate(-208.027-198.405)" fill="#fff"/><path d="M298.93539,659.93833c7.6571.82873,15.34524-1.259038,21.5314-5.847.61254-.45506,1.28648.5195.67469.974-6.446384,4.762321-14.451501,6.91869-22.41776,6.03876-.75924-.08439-.54345-1.24973.21167-1.1658Z" transform="translate(-208.027-198.405)" fill="#fff"/><path d="M343.11021,612.28348c1.399759,2.681507,4.054073,4.479437,7.06351,4.78455.75993.07472.54332,1.24-.21167,1.1658-3.321919-.352424-6.253164-2.328473-7.82586-5.27567-.175325-.271253-.109819-.632042.14967-.82435.26934-.184578.637086-.11781.82435.14967Z" transform="translate(-208.027-198.405)" fill="#fff"/><polygon id="epdMzOUXvhE12" points="395.019,487.713 406.639,483.804 397.089,437.124 379.94,442.894 395.019,487.713" fill="#ffb6b6"/><path id="epdMzOUXvhE13" d="M598.8053,683.32138l3.2707-1.10038l11.02244-9.48846l8.59057,2.88994.00093-.00031c8.054096-2.708848,16.779286,1.623716,19.48912,9.67748l.15942.47391-37.4672,12.60517Z" transform="translate(-208.027-198.405)" fill="#2f2e41"/><polygon points="338.645,480.031 350.576,482.853 367.135,438.177 349.527,434.013 338.645,480.031" fill="#ffb6b6"/><path d="M544.54955,673.82109l3.35818.79413l14.37178-2.2309l5.76606,6.993.00095.00023c8.269181,1.956277,13.387209,10.245181,11.43194,18.5146l-.11509.48658-38.46973-9.09731Z" transform="translate(-208.027-198.405)" fill="#2f2e41"/><rect width="21.0472" height="34.8782" rx="0" ry="0" transform="matrix(-1 0 0-1 258.097 473.519)" fill="#cacaca"/><rect width="4.81099" height="61.0449" rx="0" ry="0" transform="matrix(.561498-.827478 0.827478 0.561498 254.340645 461.072402)" fill="#cacaca"/><rect width="61.0449" height="4.81099" rx="0" ry="0" transform="matrix(.827476-.561501 0.561501 0.827476 187.591065 491.368312)" fill="#cacaca"/><circle r="6.61482" transform="translate(306.204 493.359)" fill="#cacaca"/><circle r="6.61482" transform="translate(247.272 493.359)" fill="#cacaca"/><circle r="6.61482" transform="translate(188.942 493.359)" fill="#cacaca"/><rect width="4.81078" height="34.2768" rx="0" ry="0" transform="translate(244.867 459.082)" fill="#cacaca"/><rect width="9.02021" height="46.3037" rx="0" ry="0" transform="matrix(-1 0 0-1 252.083 454.267)" fill="#cacaca"/><path d="M409.74182,613.58875v-10.82426c.004668-4.149501,3.367339-7.512172,7.51684-7.51684h70.29028c4.149503.004668,7.512177,3.367337,7.51685,7.51684v10.82426c-.004673,4.149503-3.367347,7.512172-7.51685,7.51684h-70.29028c-4.149501-.004668-7.512172-3.367339-7.51684-7.51684Z" transform="translate(-208.027-198.405)" fill="#3f3d56"/><path d="M367.32638,593.6271l-45.38015-78.02687c-3.073005-5.297454-1.277999-12.082722,4.01252-15.16765l2.65242-1.54264c5.297456-3.073004,12.082725-1.277993,15.16765,4.01253L389.159,580.92933c3.072998,5.297457,1.277988,12.082721-4.01253,15.16765l-2.65242,1.54264c-5.297458,3.073019-12.082741,1.278011-15.16767-4.01252Z" transform="translate(-208.027-198.405)" fill="#3f3d56"/><path d="M410.03773,613.21634c-20.424959-.023102-36.976898-16.575041-37-37h4c.001395,12.322511,6.867413,23.617945,17.805629,29.292424s24.126617,4.782787,34.201451-2.312424l2.30664,3.26758c-6.23124,4.409008-13.68041,6.768987-21.31372,6.75242Z" transform="translate(-208.027-198.405)" fill="#3f3d56"/><path id="epdMzOUXvhE27" d="M452.03773,557.21634c0,0,112-34,129,8s33,90,33,90l-22,7-43-72c0,0-103.64567,26-125.32284-4.5Z" transform="translate(-208.027-198.405)" fill="#2f2e41"/><path d="M371.03773,472.21634l-26-2-5,32c0,0,32,83,87,91l52-47-57.59055-21.45669Z" transform="translate(-208.027-198.405)" fill="#08b2b2"/><circle id="epdMzOUXvhE29" r="33.9955" transform="matrix(.894702-.446664 0.446664 0.894702 144.787005 224.372952)" fill="#ffb8b8"/><path id="epdMzOUXvhE30" d="M362.2461,457.99342c-1.56957,1.31269-3.93428,2.00458-7.16866,2.1049-19.564973.603784-37.124935-11.930833-42.91077-30.63048-1.41646-4.5786-2.61616-11.40852-.288-17.94638c1.67428-4.69883,4.9615-8.63967,7.91134-11.96479c2.55338-2.879,5.218-5.69953,7.92094-8.38147c3.22881-3.20581,7.07781-6.76606,11.90555-8.43832c3.53755-1.22466,7.32908-1.33391,10.99583-1.43937c1.27755-.03728,2.59949-.07476,3.88346-.16068c3.193422-.108609,6.327926-.890281,9.19841-2.29387c1.192255-.639128,2.603033-.729999,3.86743-.24911c1.287114.487253,2.299873,1.508435,2.77645,2.79954.46361,1.25454.88117,2.38591,2.29983,2.80352c1.038223.279124,2.147286.025002,2.9604-.67832.429494-.371271,1.017667-.500037,1.563-.34218.545846.15159.981142.563748,1.16229,1.10051l.11646.34436c.590727-.407212,1.343953-.49782,2.0144-.24232.986149.354711,1.593356,1.347043,1.46034,2.38657-.474472,4.161294-2.105893,8.10627-4.70912,11.38723-1.799892,2.223121-4.019317,4.07067-6.532,5.43753l-.40247.222-.27826-.4191c-11.29744,4.17413-14.7474,16.01052-14.1895,25.777l-.9883.13273c-.154629-.641268-.564412-1.191586-1.13446-1.52352-.659431-.418486-1.45825-.55746-2.22027-.38627-1.466826.462213-2.511615,1.761405-2.64837,3.29324-.103736,1.583164.462767,3.137023,1.5611,4.28194c1.182107,1.174374,2.547664,2.148293,4.043,2.88348.67787.38279,1.37934.77894,2.04374,1.21373c3.760123,2.481902,6.473274,6.262919,7.62046,10.61979.51575,1.99388.81181,4.83859-.70643,7.067-.316722.46388-.696281.881566-1.12782,1.24111Z" transform="translate(-208.027-198.405)" fill="#2f2e41"/><path d="M585.46176,578.09508c-5.23261,45.00689-16.424,87.12126-16.424,87.12126l-21-3l4.783-84.8722" transform="translate(-209.39276-193.578855)" fill="#2f2e41"/><path id="epdMzOUXvhE32" d="M378.38978,428.23538c-2.061677-.001576-3.882639-1.344025-4.49391-3.313-13.64474-7.111-6.43106-12.1257-5.49145-17.771-.368044-1.190817-.247922-2.479069.333936-3.581313s1.577781-1.928174,2.768644-2.296067l13.94922-4.311c2.479913-.763894,5.110059.624464,5.87841,3.103l5.4917,17.771c.762887,2.479509-.625086,5.108677-3.10278,5.87744l-13.94922,4.311c-.448403.138902-.915126.209672-1.38455.20994Z" transform="translate(-208.027-198.405)" fill="#3f3d56"/><path id="epdMzOUXvhE33" d="M387.50474,396.34682c2.085042-.014711,3.933246,1.339002,4.54823,3.33134l5.78532,18.16973c.391154,1.217328.292755,2.539146-.27433,3.68514-.550768,1.135069-1.534627,2.001148-2.73038,2.40352l-3.13651,1.0522-8.70921-27.35169l3.136-1.05219c.445328-.149829.91109-.230122,1.38088-.23805Z" transform="translate(-208.027-198.405)" fill="#08b2b2"/><path id="epdMzOUXvhE34" d="M315.39857,438.35794c-1.333102-.000694-2.510623-.868819-2.90552-2.14209l-1.45312-4.70215c-.237954-.770105-.160224-1.603197.216089-2.315989s1.020379-1.246891,1.790501-1.484791l62.98242-19.46338c.770235-.238167,1.603542-.160515,2.31651.215865s1.24716,1.020639,1.485,1.790975l1.45288,4.70166c.493486,1.603402-.404053,3.303686-2.00634,3.80078L316.29432,438.2222c-.290068.089993-.592043.135754-.89575.13574Z" transform="translate(-208.027-198.405)" fill="#3f3d56"/><path d="M486.73,585.5654h-9.38458c-2.50189-.000532-4.567951-1.954703-4.70764-4.45269l-1.59205-28.27393c-.07338-1.294545.389844-2.562135,1.280616-3.504343s2.130391-1.475786,3.427014-1.475117h12.5687c1.296667-.000668,2.536323.532947,3.427102,1.47521s1.353974,2.209915,1.280528,3.5045l-1.59206,28.27368c-.139689,2.497984-2.205744,4.452152-4.70763,4.45269Z" transform="translate(-208.027-198.405)" fill="#e4e4e4"/><polygon points="284.652,356.001 284.532,358.096 263.49,358.096 263.369,356.001 284.652,356.001" fill="#cacaca"/><polygon points="284.385,360.714 284.27,362.809 263.752,362.809 263.636,360.714 284.385,360.714" fill="#cacaca"/><polygon points="284.124,365.427 284.003,367.522 264.019,367.522 263.898,365.427 284.124,365.427" fill="#cacaca"/><polygon points="283.856,370.141 283.736,372.235 264.286,372.235 264.165,370.141 283.856,370.141" fill="#cacaca"/><polygon points="283.589,374.854 283.474,376.949 264.548,376.949 264.433,374.854 283.589,374.854" fill="#cacaca"/><polygon points="283.327,379.567 283.207,381.662 264.815,381.662 264.694,379.567 283.327,379.567" fill="#cacaca"/><ellipse rx="3.40402" ry="0.78554" transform="translate(274.273 350.502)" fill="#cacaca"/><path d="M482.55733,549.69226c-.208342.000008-.408154-.082753-.555473-.230074s-.230078-.347134-.230067-.555476v-14.878h-4.971c-.43275-.001544-.782747-.352792-.782747-.785545s.349997-.784001.782747-.785545h5.75656c.208345-.000013.40816.082746.555482.230068s.230081.347137.230068.555482v15.66355c.000008.208346-.082756.40816-.230081.55548s-.347143.230076-.555489.23006Z" transform="translate(-208.027-198.405)" fill="#cacaca"/><path d="M479.87039,562.58367c-2.301186-1.887037-5.320026-2.657859-8.244196-2.105052s-5.453286,2.372458-6.906804,4.969312l-35.181-6.26711l7.34581,17.055l32.28228,3.33664c4.625925,2.201014,10.16699.594241,12.897836-3.740055s1.788292-10.026107-2.193966-13.248725Z" transform="translate(-208.027-198.405)" fill="#ffb6b6"/><path d="M456.99549,579.7637l-64.47705-5.06885-.12866-.24365c-.24634-.46582-24.67627-46.74414-28.271-57.3623-2.236685-6.393217-2.219455-13.359136.04883-19.74121l.06519-.1543.14526-.084c6.12162-3.505345,13.856063-2.292468,18.61084,2.91846c11.079358,12.27286,19.154602,26.952858,23.58838,42.88135l2.51147,9.06348l46.13038,10.33252Z" transform="translate(-208.027-198.405)" fill="#08b2b2"/><path d="M704.79518,241.47848l287.178-41.917v274.979l-287.178-41.916Z" transform="translate(-208.027-198.405)" fill="#f2f2f2"/><path d="M992.97363,475.69629l-289.17871-42.207v-192.87552l289.17871-42.209ZM705.79492,431.75977l285.17871,41.624v-272.66551l-285.17871,41.625Z" transform="translate(-208.027-198.405)" fill="#3f3d56"/><path d="M840.54618,296.35948c-.427-.972-.874-1.959-1.352-2.909-.458229-.927059-.973553-1.824784-1.543-2.688-.515214-.789204-1.12211-1.514592-1.808-2.161-.617402-.585196-1.347596-1.038419-2.146-1.332-.870028-.300861-1.804797-.363018-2.707-.18-.941749.198977-1.842665.557111-2.664,1.059-.906423.54607-1.763058,1.170811-2.56,1.867-.829.708-1.631,1.481-2.4,2.247q-3.426,3.424-6.749,6.939-3.3,3.494-6.506,7.076-3.181,3.561-6.266,7.208-3.067,3.627-6.036,7.338l.009.146l4.639-.576l4.7-.583l4.756-.59l4.816-.6c1.169-.145,2.352-.295,3.535-.49c1.194637-.188957,2.378065-.443001,3.545-.761c1.193467-.327669,2.355916-.759321,3.474-1.29c1.179031-.563049,2.291296-1.25637,3.316-2.067.406-.322.81-.669,1.216-1.013s.816-.684,1.232-.989c.399833-.300679.827436-.562531,1.277-.782.424256-.207682.881402-.339987,1.351-.391.573067-.050277,1.149839.037507,1.682.256.567994.236031,1.095675.559253,1.564.958.51954.437557.998793.920826,1.432,1.444.457464.548456.886687,1.119863,1.286,1.712c2.432527,3.708082,4.493179,7.64717,6.152,11.76c1.8,4.262,3.4,8.755,5.053,13.211c1.657,4.475,3.358,8.913,5.344,13.053c1.867555,4.067993,4.254069,7.877003,7.1,11.332q-2.674-9.087-5.58-17.943-2.891-8.811-6-17.374-3.099-8.516-6.399-16.765-3.284-8.2-6.765-16.122Z" transform="translate(-208.027-198.405)" fill="#fff"/><path id="epdMzOUXvhE49" d="M777.95918,297.98448l-.071.082-.071.082-.071.081-.071.081q-.261.215-.52.436t-.516.445q-.257.225-.512.452l-.509.456q-.477.429-.95.865t-.941.88-.932.9-.924.911q-.914.913-1.811,1.855t-1.774,1.907q-.877.968-1.737,1.966t-1.7,2.022q-.436.531-.866,1.07t-.855,1.084-.844,1.1-.835,1.107l-.06-.1-.059-.1-.058-.1-.053-.114-.014-.026-.014-.026-.013-.026-.013-.027c-.590031-1.146704-1.054716-2.353678-1.386-3.6-.350048-1.309524-.578681-2.648518-.683-4-.109673-1.385684-.098297-2.778293.034-4.162.130967-1.387384.389051-2.759813.771-4.1.357591-1.267665.845528-2.49488,1.456-3.662.5446-1.045399,1.216362-2.019454,2-2.9.697598-.786241,1.514594-1.457791,2.421-1.99.835373-.489468,1.760155-.807022,2.72-.934.930634-.11682,1.875522-.0312,2.77.251.933885.301989,1.802649.776909,2.561,1.4.852979.698601,1.59685,1.520668,2.207,2.439.702219,1.05236,1.275018,2.185535,1.706,3.375l.008.021.008.022.008.022.007.021.048.133.047.134.046.135Z" transform="matrix(1.009859 0 0 1-227.164009-247.200151)" fill="#08b2b2"/><path d="M778.95719,388.37448q1.589.178,3.184.438t3.2.6q1.609.344,3.222.771t3.238.94c3.339411,1.064186,6.605422,2.346271,9.777,3.838c3.355609,1.576939,6.612877,3.355179,9.754,5.325c3.341378,2.094778,6.563994,4.373277,9.653,6.825c3.29287,2.613715,6.450304,5.393659,9.46,8.329q1.554,1.511,3.083,3.1t3.039,3.262t2.991,3.422t2.939,3.58l.357.45.356.453.355.455.354.457c.052444.081477.142117.131379.239.133.08341-.007307.159429-.050799.208-.119.058542-.076567.091436-.169651.094-.266.003903-.111842-.031477-.221521-.1-.31q-1.45-1.878-2.933-3.682t-2.992-3.522q-1.5-1.72-3.037-3.365t-3.084-3.2q-1.549-1.556-3.121-3.034t-3.155-2.87-3.186-2.7-3.213-2.537q-1.613-1.228-3.239-2.375t-3.256-2.211q-1.629-1.06-3.269-2.039t-3.278-1.875q-1.636-.891-3.279-1.7t-3.279-1.53q-1.634-.723-3.277-1.362t-3.272-1.194q-1.628-.553-3.254-1.023t-3.24-.854-3.224-.686-3.205-.521l-.4-.054-.4-.051-.408-.048-.402-.045c-.035368-.000753-.070166.00899-.1.028-.032162.020956-.059445.04858-.08.081-.023547.03737-.041093.078198-.052.121-.013501.049531-.020229.100663-.02.152.000299.050644.00702.101046.02.15.011461.045295.029307.08873.053.129.020679.035399.047815.066606.08.092.028825.022949.063433.037484.1.042Z" transform="translate(-208.027-198.405)" fill="#fff"/><path d="M777.95818,363.19548q2.839.405,5.708.825t5.8.89q2.928.471,5.883,1q2.971.54,5.967,1.168q3.02.6,6.059,1.363q3.055.763,6.127,1.684q3.088.926,6.19,2.012q3.116,1.101,6.244,2.358q2.781,1.121,5.55,2.445t5.544,2.855q2.775,1.54,5.526,3.283t5.5,3.705q2.57,1.841,5.083,3.9t4.979,4.35t4.858,4.793t4.718,5.228q2.3,2.691,4.46,5.613t4.2,6.08q2.031,3.158,3.906,6.52t3.589,6.931q.213.45.423.9t.417.909q.207.456.411.915t.4.921c.03764.106079.118232.191391.222.235.083241.027996.174814.015019.247-.035.080286-.055433.137545-.138298.161-.233.028556-.120412.015515-.246944-.037-.359q-1.621-3.684-3.427-7.188t-3.778-6.778q-1.964-3.283-4.089-6.355t-4.379-5.891q-2.271-2.838-4.636-5.47t-4.794-5.031q-2.429-2.4-4.933-4.583t-5.049-4.127q-2.654-2.026-5.346-3.853t-5.388-3.436q-2.7-1.611-5.417-3.021t-5.434-2.607q-3.144-1.372-6.282-2.568-3.12-1.19-6.231-2.2-3.102-1.015-6.178-1.853-3.064-.834-6.113-1.5-3.054-.7-6.083-1.287-3.012-.588-6-1.091-2.969-.5-5.91-.948-2.918-.443-5.818-.854l-.715-.1-.713-.1-.712-.105-.71-.1c-.07772-.010954-.153644.029431-.188.1-.043051.080113-.064423.170084-.062.261-.001129.097611.020439.194149.063.282.034542.076633.104378.13153.187.147Z" transform="translate(-208.027-198.405)" fill="#fff"/><path d="M904.30418,425.05648q-.46-.8-.917-1.607t-.912-1.607-.907-1.606-.9-1.606q-3.653-6.527-7.156-13.074-3.484-6.511-6.823-13.047-3.322-6.5-6.5-13.031-3.166-6.5-6.2-13.026-2.051-4.416-4.037-8.843t-3.9-8.838q-1.912-4.412-3.762-8.837t-3.63-8.838q-.848-2.1-1.682-4.2t-1.652-4.2-1.622-4.2-1.593-4.2q-.612-1.628-1.216-3.258t-1.2-3.259q-.595-1.629-1.181-3.259t-1.164-3.26q-.165-.466-.328-.932t-.324-.933-.321-.934l-.319-.935q-.375-1.1-.748-2.2t-.748-2.194-.757-2.181-.774-2.162c-.3-.816-.612-1.641-.95-2.452s-.7-1.606-1.089-2.365c-.376702-.740201-.801269-1.455051-1.271-2.14-.43954-.641756-.94203-1.238044-1.5-1.78-.23873-.239963-.496948-.459716-.772-.657-.261391-.187354-.539189-.350686-.83-.488-.280565-.132258-.57326-.237079-.874-.313-.29644-.074586-.599635-.119144-.905-.133-.434288-.004912-.86683.055772-1.283.18-.427643.128271-.840587.301225-1.232.516-.410471.224675-.806267.475178-1.185.75-.388.277-.768.577-1.142.881q-4.095,3.365-8,7.012-3.873,3.621-7.55,7.512-3.653,3.864-7.107,7.985-3.433,4.094-6.666,8.434-3.219,4.3-6.23,8.806-2.994,4.484-5.781,9.17-2.772,4.661-5.337,9.515-2.545,4.823-4.885,9.835c-.028534.08179-.094841.144744-.178.169-.069936.01129-.141029-.011787-.191-.062-.061604-.057939-.103264-.133908-.119-.217-.020199-.101475-.006862-.206766.038-.3q.284-.609.571-1.216t.579-1.207q.291-.6.584-1.206t.591-1.2q3.707-7.474,7.883-14.513q4.2-7.087,8.875-13.707q4.706-6.67,9.876-12.839q5.215-6.219,10.892-11.9.96-.959,1.933-1.9t1.961-1.869q.988-.927,1.989-1.837t2.016-1.805q.512-.451,1.027-.9t1.034-.892q.519-.444,1.042-.88t1.052-.862c.330269-.302376.679297-.583602,1.045-.842.351089-.246766.718609-.469283,1.1-.666.367917-.190288.749269-.35339,1.141-.488.382626-.130278.77481-.230581,1.173-.3c1.309414-.117092,2.612485.28435,3.629,1.118c1.151356.953424,2.111336,2.116666,2.829,3.428.844406,1.485355,1.572259,3.034005,2.177,4.632.635,1.622,1.186,3.255,1.682,4.714q.234.689.469,1.377t.473,1.377q.237.688.476,1.376t.48,1.375q.91,2.612,1.841,5.22t1.885,5.218q.954,2.611,1.929,5.218t1.974,5.217q.617,1.612,1.241,3.221t1.258,3.222q.634,1.612,1.276,3.222t1.289,3.219q2.03,5.027,4.139,10.036q2.116,5.027,4.312,10.038q2.2,5.03,4.489,10.046q2.294,5.035,4.672,10.058q3.164,6.684,6.473,13.338q3.327,6.69,6.8,13.354q3.5,6.7,7.149,13.382q3.674,6.719,7.509,13.421c.065239.113553.093219.244709.08.375-.010513.109588-.052539.213785-.121.3-.052656.072867-.137099.116018-.227.116-.103622-.016656-.191927-.084294-.235-.18Z" transform="translate(-208.027-198.405)" fill="#fff"/><path d="M800.19218,307.61848l-.216-.349-.216-.349-.216-.349-.217-.349c-.572-.915-1.153-1.825-1.751-2.706s-1.214-1.737-1.855-2.531c-.617901-.780002-1.285983-1.518902-2-2.212-.674298-.654217-1.411162-1.240693-2.2-1.751-.35828-.237431-.733258-.448648-1.122-.632-.37414-.176158-.761283-.323259-1.158-.44-.387407-.11394-.78335-.19654-1.184-.247-.397929-.049821-.799278-.066879-1.2-.051-.415644.040749-.827964.110249-1.234.208-.412273.099358-.817497.225969-1.213.379-.406021.157061-.801797.339418-1.185.546-.396525.213679-.780183.450419-1.149.709q-.268.177-.533.365t-.527.383q-.262.2-.521.4t-.516.413q-.293.24-.584.487t-.579.5q-.288.251-.575.505l-.571.509q-.535.479-1.065.966t-1.055.983q-.525.5-1.045,1t-1.035,1.016q-1.024,1.018-2.028,2.069t-1.985,2.13-1.943,2.191-1.9,2.252q-.487.592-.968,1.191t-.956,1.206-.943,1.222-.931,1.237q-.43.578-.855,1.162t-.844,1.175q-.419.59-.833,1.187t-.823,1.2c-.035563.068774-.107627.110844-.185.108-.069329-.014744-.12882-.058906-.163-.121-.046511-.075614-.072053-.162248-.074-.251-.004802-.098213.022201-.195355.077-.277l.216-.323.217-.318.218-.317.218-.315q.308-.444.619-.884t.625-.878q.314-.437.632-.871t.638-.864q.584-.787,1.178-1.56t1.2-1.536q.6-.757,1.212-1.507t1.236-1.487q.969-1.149,1.959-2.265t2-2.2q1.014-1.087,2.048-2.14t2.094-2.077q.529-.511,1.063-1.013t1.074-1q.54-.494,1.084-.979t1.095-.962l.333-.286q.167-.142.336-.282t.338-.278q.17-.138.34-.272.387-.318.782-.613t.8-.566q.4-.272.813-.519t.827-.471c.386267-.211641.787309-.395117,1.2-.549.399694-.148928.810234-.266941,1.228-.353.409868-.084769.825862-.136601,1.244-.155.417279-.017932.835325-.001879,1.25.048.406071.065532.807052.159429,1.2.281.399626.124059.7905.274729,1.17.451.391324.18183.770749.388242,1.136.618.379786.239201.745091.500657,1.094.783.775625.615279,1.49878,1.293947,2.162,2.029.70113.775651,1.360399,1.588138,1.975,2.434.634.864,1.245,1.771,1.844,2.7s1.186,1.875,1.77,2.818c.05561.092982.080782.201014.072.309-.006249.098429-.037202.193695-.09.277-.037395.067912-.102273.116388-.178.133-.084848.002699-.162663-.046928-.196-.125Z" transform="translate(-208.027-198.405)" fill="#fff"/><path d="M869.38518,347.45748l8.934-4.322l4.509-2.181q.55-.293,1.105-.567t1.119-.531q.563-.257,1.133-.494t1.144-.457c.330469-.125107.671973-.218853,1.02-.28.687428-.120251,1.391579-.10701,2.074.039.349495.074869.691293.181994,1.021.32.302967.14911.596817.316071.88.5.290258.1885.569698.393156.837.613.275227.226588.538262.467592.788.722.257989.262557.502631.537903.733.825q.359.438.706.893t.682.927.656.961.63.994q.383.608.765,1.22t.762,1.227l.761,1.231.763,1.233q1.578,2.549,3.158,5.116t3.172,5.165q1.591,2.6,3.185,5.214t3.2,5.263q1.6,2.647,3.212,5.313t3.225,5.363q1.618,2.7,3.238,5.414t3.251,5.465q1.635,2.755,3.272,5.53t3.285,5.581q1.648,2.807,3.3,5.633t3.312,5.686l.407.7.407.7.407.7.407.7c.056408.109568.155553.190983.274.225.09898.023909.203433.006198.289-.049.088015-.055758.150801-.143658.175-.245.026187-.124655.002494-.254608-.066-.362q-1.678-2.893-3.353-5.766t-3.34-5.713q-1.664-2.839-3.326-5.659t-3.313-5.6q-1.655-2.793-3.307-5.568t-3.293-5.514q-1.641-2.741-3.28-5.463t-3.27-5.411q-1.628-2.689-3.253-5.36t-3.239-5.309-3.226-5.258-3.212-5.207l-.8-1.289-.8-1.286-.8-1.283-.8-1.28q-.335-.539-.67-1.079t-.675-1.071q-.341-.531-.69-1.05t-.715-1.018c-.441746-.608773-.916804-1.192664-1.423-1.749-.484388-.534688-1.014387-1.026208-1.584-1.469-.529628-.41545-1.112045-.75878-1.732-1.021-.603103-.25062-1.247138-.38824-1.9-.406-.385426.017661-.769447.058401-1.15.122-.382071.063702-.760059.149851-1.132.258-.375861.109403-.745135.240285-1.106.392-.367399.154707-.725948.329641-1.074.524l-1.149.554-1.145.555-1.141.555-1.134.553-9.046,4.385-2.23,1.082c-.09792.049211-.170539.137444-.2.243-.032339.108072-.037491.222458-.015.333.015543.099112.062518.190608.134.261.070243.064903.174803.075887.257.027Z" transform="translate(-208.027-198.405)" fill="#fff"/><path d="M779.83918,293.28248l-.417.5c-.762923-1.5381-1.773762-2.940166-2.992-4.15-1.027811-1.023349-2.261402-1.816543-3.619-2.327-1.25273-.459909-2.600227-.60081-3.921-.41-1.408623.220866-2.74713.764345-3.911,1.588-1.320588.93263-2.467875,2.089055-3.39,3.417-1.025536,1.464287-1.856491,3.055605-2.472,4.734-.67442,1.820082-1.148551,3.708221-1.414,5.631-.284274,2.029694-.354326,4.083654-.209,6.128.069763,1.019536.195957,2.034425.378,3.04.175139.969717.406869,1.928355.694,2.871.274448.90201.606462,1.78549.994,2.645.367748.817618.794543,1.607373,1.277,2.363l-.353.552c-.502108-.787011-.946281-1.609516-1.329-2.461-.403466-.89461-.749175-1.814162-1.035-2.753-.298362-.981097-.539107-1.978799-.721-2.988-.18929-1.046606-.320491-2.102889-.393-3.164-.150929-2.127434-.077861-4.26484.218-6.377.275874-2.00122.768777-3.966462,1.47-5.861.640078-1.747341,1.504301-3.404188,2.571-4.929.959636-1.383127,2.153594-2.587915,3.528-3.56c1.211409-.859302,2.604989-1.42707,4.072-1.659c1.375259-.200454,2.778787-.055428,4.084.422c1.414416.53007,2.699871,1.354998,3.771,2.42c1.270491,1.261422,2.324292,2.723702,3.119,4.328Z" transform="translate(-208.027-198.405)" fill="#fff"/><path d="M822.03018,344.69248c-.087151-.077305-.165311-.164187-.233-.259-.072399-.10081-.135016-.208297-.187-.321-.055362-.119647-.100522-.243754-.135-.371-.036363-.134101-.062109-.270857-.077-.409-.01539-.140106-.02007-.281182-.014-.422.006147-.138076.022863-.275478.05-.411.026122-.131441.06291-.260535.11-.386.045237-.120256.101476-.23608.168-.346l-1.736-25.1l2.9.2.808,24.8c.123325.180757.218101.379415.281.589.066529.218558.10484.444725.114.673.00979.230151-.00936.460621-.057.686-.045582.220079-.123067.432319-.23.63-.094319.177158-.220417.335457-.372.467-.127243.114871-.279137.199029-.444.246-.157345.041222-.322655.041222-.48,0-.174153-.05064-.333841-.141792-.466-.266Z" transform="translate(-208.027-198.405)" fill="#9e616a"/><path d="M824.06018,315.62448l-.765,8.376.106,5.12-3.194.453-.637-4.232-.353-11.21c-.013135-.423534.030247-.84693.129-1.259.088583-.378073.231039-.741454.423-1.079.170281-.30435.394221-.575382.661-.8.242184-.20362.530607-.344741.84-.411v0c.305341-.062473.622191-.036098.913.076.302664.120558.573128.309882.79.553.24895.277102.446992.596001.585.942.161062.397172.262168.816086.3,1.243Z" transform="translate(-208.027-198.405)" fill="#2f2e41"/><path d="M811.94818,388.39648l-1.884-.128-.893-10.653l2.777.149Z" transform="translate(-208.027-198.405)" fill="#9e616a"/><path d="M812.42918,391.10248l-6.048-.429v-.112c-.001844-.447831.060112-.893642.184-1.324.106779-.377977.275757-.735535.5-1.058.194166-.281543.448677-.51624.745-.687.277771-.157371.595396-.230348.914-.21v0l3.706.245Z" transform="translate(-208.027-198.405)" fill="#2f2e41"/><path d="M827.86718,389.47048l-1.963-.134-.931-10.876l2.894.156Z" transform="translate(-208.027-198.405)" fill="#9e616a"/><path d="M828.36619,392.23248l-6.3-.447v-.114c-.00218-.457212.06216-.912311.191-1.351.112009-.386491.288491-.751288.522-1.079.203432-.288103.468527-.527235.776-.7.290471-.160483.620835-.234398.952-.213v0l3.859.256Z" transform="translate(-208.027-198.405)" fill="#2f2e41"/><path d="M820.28818,294.58048c.569673-.029535,1.135918.104393,1.632.386.530579.305937.987371.724834,1.338,1.227.402499.572961.706668,1.209012.9,1.882.223589.762502.33542,1.553399.332,2.348.001881.804675-.109889,1.605584-.332,2.379-.196472.698577-.500079,1.362464-.9,1.968-.351241.53577-.806179.995808-1.338,1.353-.484944.324708-1.049088.511373-1.632.54-.569582.020151-1.133156-.122043-1.625-.41-.52503-.311755-.976091-.733815-1.322-1.237-.397544-.571203-.698239-1.204014-.89-1.873-.218918-.755479-.328365-1.538449-.325-2.325-.00183-.796302.10756-1.588958.325-2.355.194532-.694262.494348-1.354599.889-1.958.347474-.534932.797055-.996067,1.323-1.357.48059-.332299,1.042048-.52855,1.625-.568Z" transform="translate(-208.027-198.405)" fill="#9e616a"/><path d="M819.74818,309.13548l2.914.375v0c.366407.741067.66076,1.515626.879,2.313.226408.82689.381641,1.671639.464,2.525.085831.873378.099879,1.752325.042,2.628-.057222.880838-.188689,1.755276-.393,2.614l-2.2,9.215c0,0,.191.549.477,1.5s.669,2.31,1.051,3.925.767,3.491,1.054,5.476c.305577,2.031332.465983,4.08186.48,6.136.118861,3.134449.424738,6.259007.916,9.357.551,3.926,1.286,8.4,2.023,12.62s1.478,8.21,2.034,11.135.928,4.8.928,4.8l-8.281.735-3.561-31.228-4.85,30.587-5.463-1.626l3-39.934l1.994-13.224.085-6.457c0,0-.053-.3-.1-.8-.061386-.664782-.081424-1.332734-.06-2c.024279-.874022.138209-1.743244.34-2.594.212144-.918914.5845-1.793274,1.1-2.583l2.617-5.382Z" transform="translate(-208.027-198.405)" fill="#cacaca"/><path d="M815.44119,298.70648l6.12-.307v-3.875c-.324758-.175868-.658928-.333773-1.001-.473-.299856-.128037-.616917-.211261-.941-.247-.288512-.031506-.579825.024596-.836.161-.29659.178148-.534943.438738-.686.75-.371683.024918-.729684.150011-1.036.362-.335938.23193-.62276.527928-.844.871-.251949.385634-.443493.807502-.568,1.251-.139042.490224-.209049.997441-.208,1.507Z" transform="translate(-208.027-198.405)" fill="#2f2e41"/><path d="M821.90718,293.82048c.875504-.044257,1.723032.315021,2.3.975.665636.767069,1.163311,1.664996,1.461,2.636.364146,1.102348.621004,2.23728.767,3.389.144814,1.068951.218975,2.146289.222,3.225.00628.451926-.033931.903301-.12,1.347-.061968.32593-.177894.639233-.343.927-.136152.231568-.319859.431635-.539.587-.2155.147697-.454587.257602-.707.325l-.368-2.8-.861,2.971-.222.008-.227.006h-.467l-.291-.85-.647.871c-.647.026-1.262.085-1.821.1-.498781.034578-.99972-.02063-1.479-.163-.436532-.146723-.79486-.464274-.993-.88-.276581-.64545-.401448-1.345734-.365-2.047.002066-1.071386.068854-2.141669.2-3.205.134087-1.161476.375451-2.308039.721-3.425.291759-1.007619.778647-1.948097,1.433-2.768.574414-.7213,1.425983-1.167411,2.346-1.229Z" transform="translate(-208.027-198.405)" fill="#2f2e41"/><path style="isolation:isolate" d="M816.48218,330.68548l-.154-9.691-.408-4.294-1.006,4.285Z" transform="translate(-208.027-198.405)" opacity="0.2"/><path d="M824.21718,329.31648l-4.64.046v-19.591l4.64-.164c.460536-.01353.915573.102915,1.313.336.425875.252419.792494.59346,1.075,1c.324113.46297.569735.976176.727,1.519.179898.612093.270169,1.247021.268,1.885v10.076c.001262.640871-.088982,1.278639-.268,1.894-.158538.552598-.403935,1.076471-.727,1.552-.282368.420702-.64829.778796-1.075,1.052-.392618.251402-.846901.389798-1.313.4Z" transform="translate(-208.027-198.405)" fill="#08b2b2"/><path d="M823.56818,318.77448c-.080208.001384-.159198-.019749-.228-.061-.073773-.044822-.137174-.104814-.186-.176-.056216-.080845-.098781-.170368-.126-.265-.03131-.106515-.047139-.216979-.047-.328v-7.309l1.174-.04v7.32c.000323.11162-.015164.222723-.046.33-.028172.096494-.071368.187948-.128.271-.049141.073711-.112765.136654-.187.185-.06803.044304-.146863.069199-.228.072Z" transform="translate(-208.027-198.405)" fill="#3f3d56"/><path d="M824.98118,327.75948l-3.407.041c-.101255.000618-.200665-.027092-.287-.08-.092953-.057712-.172689-.13438-.234-.225-.070329-.102449-.12368-.215567-.158-.335-.03893-.134196-.058461-.273272-.058-.413v-2.923c-.000283-.140044.019244-.279425.058-.414.034721-.120216.088032-.234261.158-.338.061157-.093197.140803-.172843.234-.234.085708-.055396.184987-.086183.287-.089l3.407-.063c.10214-.001209.202585.026153.29.079.093594.057174.174024.133514.236.224.071288.102894.12533.21672.16.337.03946.13479.05933.274554.059.415v2.941c.000179.140764-.019687.280837-.059.416-.03505.121381-.089048.236465-.16.341-.061844.093039-.142178.172351-.236.233-.086866.05503-.187187.085126-.29.087Z" transform="translate(-208.027-198.405)" fill="#3f3d56"/><path d="M815.35818,321.94748c-.231252-.424079-.431767-.86421-.6-1.317-.17472-.469472-.318691-.949822-.431-1.438-.11612-.503649-.201279-1.013938-.255-1.528-.055439-.525767-.079481-1.054371-.072-1.583-.002021-1.019671.10187-2.036794.31-3.035.175741-.86494.458237-1.704702.841-2.5.301299-.648935.725444-1.233366,1.249-1.721.417616-.395592.960073-.633226,1.534-.672.319252.01185.63355.082711.927.209.306569.133872.5898.315828.839.539.274851.245049.515957.525498.717.834.225121.34273.410957.709706.554,1.094l-.33.31c-.125866-.344863-.289884-.674576-.489-.983-.178752-.277573-.393261-.530411-.638-.752-.222469-.203821-.475977-.370913-.751-.495-.261683-.11708-.542719-.184881-.829-.2-.52085.036409-1.011772.256881-1.385.622-.474819.454784-.85777.996619-1.128,1.596-.346735.741291-.601946,1.522033-.76,2.325-.1874.927901-.28054,1.872367-.278,2.819-.007907.496185.013798.9924.065,1.486.049712.482382.128859.961275.237,1.434.103918.458525.237533.90981.4,1.351.157497.425571.345313.839299.562,1.238Z" transform="translate(-208.027-198.405)" fill="#08b2b2"/><path d="M817.22418,345.65548c-.091207-.091019-.172342-.191599-.242-.3-.074349-.117549-.137621-.241749-.189-.371-.054889-.134537-.098701-.273332-.131-.415-.03393-.148381-.05633-.299164-.067-.451-.01164-.153112-.01164-.306888,0-.46.011904-.149247.035306-.297354.07-.443.033558-.140172.078713-.277312.135-.41.054932-.126787.121906-.248009.2-.362l-.855-27.459l3.133.458-.141,27.073c.125772.206566.220137.430682.28.665.1296.485031.133386.995098.011,1.482-.060379.234943-.155781.459459-.283.666-.10903.183839-.25228.34508-.422.475-.146735.111968-.318207.187073-.5.219-.173752.029411-.35215.013569-.518-.046-.184985-.068546-.352131-.177926-.489-.32Z" transform="translate(-208.027-198.405)" fill="#9e616a"/><path d="M820.60918,314.18449l-1.172,9.062-.095,5.584-3.474.223-.516-4.657.077-12.241c.001751-.460345.064977-.918394.188-1.362.109948-.402747.278409-.787177.5-1.141.196796-.316207.451202-.592661.75-.815.271568-.202752.590207-.333167.926-.379v0c.33701-.042497.679143.012327.986.158.324308.157286.609021.385603.833.668.258001.322273.459213.686145.595,1.076.156722.444439.24801.909299.271,1.38Z" transform="translate(-208.027-198.405)" fill="#cacaca"/><path d="M820.94518,395.96148c.062305-.241521.237323-.438136.47-.528.298212-.110322.619192-.144688.934-.1.434399.052529.860231.160751,1.267.322.510776.196708,1.002491.43972,1.469.726.49381.299221.962067.638707,1.4,1.015.391784.332414.751679.700679,1.075,1.1.264579.321031.48117.678759.643,1.062.127187.276975.163924.586969.105.886-.06402.244027-.242672.441701-.479.53-.303247.108303-.628577.139908-.947.092-.437966-.055259-.867095-.166154-1.277-.33-.511613-.199873-1.003976-.445887-1.471-.735-.490997-.298918-.956568-.637728-1.392-1.013-.387523-.332752-.743072-.701023-1.062-1.1-.26016-.317719-.473027-.671376-.632-1.05-.1248-.274481-.160808-.581073-.103-.877Z" transform="translate(-208.027-198.405)" fill="#fff"/><path d="M834.28019,396.10348c.094749-.225638.304669-.381929.548-.408.330383-.033801.664053.012152.973.134.444632.161592.869111.373999,1.265.633.504483.323305.982035.68682,1.428,1.087.471265.419503.911424.872696,1.317,1.356.360319.426967.68444.883212.969,1.364.230769.379084.409695.787385.532,1.214.0974.293805.0974.611195,0,.905-.097086.227463-.310792.383618-.557.407-.335108.030818-.672739-.018542-.985-.144-.447901-.165651-.875354-.382061-1.274-.645-.503343-.327962-.97954-.695811-1.424-1.1-.467643-.417902-.904449-.869079-1.307-1.35-.356686-.423939-.677461-.876836-.959-1.354-.228149-.375419-.405051-.77967-.526-1.202-.09565-.29135-.09565-.60565,0-.897Z" transform="translate(-208.027-198.405)" fill="#fff"/><path d="M840.48017,409.45048c.088958-.232697.295815-.399862.542-.438.332041-.04983.67119-.01931.989.089.454315.141512.890591.335487,1.3.578.519566.30253,1.013543.64701,1.477,1.03.4912.401142.952119.837996,1.379,1.307.379599.413874.723493.859129,1.028,1.331.246031.37203.440469.775709.578,1.2.10822.293866.118394.614871.029.915-.091855.234052-.30218.400861-.551.437-.336548.046362-.679296.012087-1-.1-.45833-.145782-.898254-.3441-1.311-.591-.520205-.304393-1.014831-.650531-1.479-1.035-.487748-.401167-.945317-.837678-1.369-1.306-.375019-.411602-.714562-.854179-1.015-1.323-.242036-.368576-.433102-.7682-.568-1.188-.106311-.291127-.116475-.60867-.029-.906Z" transform="translate(-208.027-198.405)" fill="#fff"/><path d="M853.77718,415.05248c.093546-.237357.307405-.406153.56-.442.344118-.047611.694616-.013349,1.023.1.470158.147809.921784.349128,1.346.6.536829.309701,1.047818.662176,1.528,1.054.506581.410047.982515.85657,1.424,1.336.392465.423875.748399.880166,1.064,1.364.254787.379142.456648.791277.6,1.225.111747.298316.122289.625102.03.93-.096081.239404-.31414.408113-.57.441-.349358.045427-.7045.00844-1.037-.108-.473674-.151241-.928601-.355891-1.356-.61-.537713-.313804-1.049358-.670283-1.53-1.066-.503589-.410982-.976512-.85817-1.415-1.338-.386343-.420469-.736581-.872735-1.047-1.352-.250811-.37568-.4493-.783762-.59-1.213-.109799-.295587-.120331-.618894-.03-.921Z" transform="translate(-208.027-198.405)" fill="#fff"/><path d="M790.57218,301.74448c-.884816-.623753-1.877585-1.078094-2.928-1.34-.984413-.23919-2.006551-.28032-3.007-.121-1.032447.169667-2.024928.527611-2.928,1.056-1.004831.590172-1.913081,1.33114-2.693,2.197q2.342.509,4.691,1.127t4.722,1.352q2.374.735,4.751,1.581t4.776,1.813c-.673769-.574539-1.306639-1.195379-1.894-1.858-.606-.67-1.2-1.378-1.785-2.077s-1.18-1.388-1.792-2.025c-.585733-.624052-1.225934-1.194644-1.913-1.705Z" transform="translate(-208.027-198.405)" fill="#fff"/><path d="M778.98118,303.52749l-.684.881q.087-.115.175-.227t.178-.221.182-.214.184-.209Z" transform="translate(-208.027-198.405)" fill="#f2f2f2"/><path d="M894.32818,347.81849c-.199364-.392945-.423135-.773022-.67-1.138-.237985-.350464-.49924-.68455-.782-1-.272818-.302628-.567259-.585038-.881-.845-.301361-.25084-.62202-.477541-.959-.678l-1.278.056q3.654,8.581,7.987,16.718q4.359,8.185,9.39,15.884q5.067,7.751,10.8,14.969q5.782,7.272,12.231,13.956l-9.24-14.936-9.05-14.626-8.865-14.326Z" transform="translate(-208.027-198.405)" fill="#fff"/><path d="M719.51151,700.43852h-510.294c-.65625-.001902-1.187239-.534432-1.187239-1.190685s.530989-1.188783,1.187239-1.190685h510.294c.657597,0,1.190685.533088,1.190685,1.190685s-.533088,1.190685-1.190685,1.190685Z" transform="translate(-208.027-198.405)" fill="#cacaca"/><path id="epdMzOUXvhE81" d="M385.13867,408.89648c-1.074953-.000351-2.029759-.686731-2.37256-1.70556l-1.27246-3.79151c-.290579-.848507-.104366-1.787656.487982-2.461098s1.500058-.977974,2.378708-.798046s1.593592.816743,1.87355,1.668814l1.27246,3.79151c.437279,1.308962-.267011,2.724958-1.57471,3.166h-.00049c-.255401.085855-.523035.129721-.79248.12989Z" transform="translate(-208.027-198.405)" fill="#3f3d56"/><path id="epdMzOUXvhE82" d="M388.043,418.9248c-1.115919-.002926-2.095137-.744158-2.40088-1.81738l-1.09375-3.84765c-.375854-1.327532.394778-2.708582,1.721912-3.085839s2.708998.391914,3.087658,1.718649l1.09375,3.84765c.181299.637855.101753,1.321608-.221133,1.900807s-.862659,1.00639-1.500547,1.187573c-.223451.063688-.45466.096061-.68701.09619Z" transform="translate(-208.027-198.405)" fill="#3f3d56"/>
<script><![CDATA[
!function(t,n){"object"==typeof exports&&"undefined"!=typeof module?module.exports=n():"function"==typeof __SVGATOR_DEFINE__&&__SVGATOR_DEFINE__.amd?__SVGATOR_DEFINE__(n):((t="undefined"!=typeof globalThis?globalThis:t||self).__SVGATOR_PLAYER__=t.__SVGATOR_PLAYER__||{},t.__SVGATOR_PLAYER__["5c7f360c"]=n())}(this,(function(){"use strict";function t(t,n){var e=Object.keys(t);if(Object.getOwnPropertySymbols){var r=Object.getOwnPropertySymbols(t);n&&(r=r.filter((function(n){return Object.getOwnPropertyDescriptor(t,n).enumerable}))),e.push.apply(e,r)}return e}function n(n){for(var e=1;e<arguments.length;e++){var r=null!=arguments[e]?arguments[e]:{};e%2?t(Object(r),!0).forEach((function(t){o(n,t,r[t])})):Object.getOwnPropertyDescriptors?Object.defineProperties(n,Object.getOwnPropertyDescriptors(r)):t(Object(r)).forEach((function(t){Object.defineProperty(n,t,Object.getOwnPropertyDescriptor(r,t))}))}return n}function e(t){return(e="function"==typeof Symbol&&"symbol"==typeof Symbol.iterator?function(t){return typeof t}:function(t){return t&&"function"==typeof Symbol&&t.constructor===Symbol&&t!==Symbol.prototype?"symbol":typeof t})(t)}function r(t,n){if(!(t instanceof n))throw new TypeError("Cannot call a class as a function")}function i(t,n){for(var e=0;e<n.length;e++){var r=n[e];r.enumerable=r.enumerable||!1,r.configurable=!0,"value"in r&&(r.writable=!0),Object.defineProperty(t,r.key,r)}}function u(t,n,e){return n&&i(t.prototype,n),e&&i(t,e),t}function o(t,n,e){return n in t?Object.defineProperty(t,n,{value:e,enumerable:!0,configurable:!0,writable:!0}):t[n]=e,t}function a(t){return(a=Object.setPrototypeOf?Object.getPrototypeOf:function(t){return t.__proto__||Object.getPrototypeOf(t)})(t)}function l(t,n){return(l=Object.setPrototypeOf||function(t,n){return t.__proto__=n,t})(t,n)}function s(){if("undefined"==typeof Reflect||!Reflect.construct)return!1;if(Reflect.construct.sham)return!1;if("function"==typeof Proxy)return!0;try{return Boolean.prototype.valueOf.call(Reflect.construct(Boolean,[],(function(){}))),!0}catch(t){return!1}}function f(t,n,e){return(f=s()?Reflect.construct:function(t,n,e){var r=[null];r.push.apply(r,n);var i=new(Function.bind.apply(t,r));return e&&l(i,e.prototype),i}).apply(null,arguments)}function c(t,n){if(n&&("object"==typeof n||"function"==typeof n))return n;if(void 0!==n)throw new TypeError("Derived constructors may only return object or undefined");return function(t){if(void 0===t)throw new ReferenceError("this hasn't been initialised - super() hasn't been called");return t}(t)}function h(t,n,e){return(h="undefined"!=typeof Reflect&&Reflect.get?Reflect.get:function(t,n,e){var r=function(t,n){for(;!Object.prototype.hasOwnProperty.call(t,n)&&null!==(t=a(t)););return t}(t,n);if(r){var i=Object.getOwnPropertyDescriptor(r,n);return i.get?i.get.call(e):i.value}})(t,n,e||t)}function v(t){return function(t){if(Array.isArray(t))return y(t)}(t)||function(t){if("undefined"!=typeof Symbol&&null!=t[Symbol.iterator]||null!=t["@@iterator"])return Array.from(t)}(t)||function(t,n){if(!t)return;if("string"==typeof t)return y(t,n);var e=Object.prototype.toString.call(t).slice(8,-1);"Object"===e&&t.constructor&&(e=t.constructor.name);if("Map"===e||"Set"===e)return Array.from(t);if("Arguments"===e||/^(?:Ui|I)nt(?:8|16|32)(?:Clamped)?Array$/.test(e))return y(t,n)}(t)||function(){throw new TypeError("Invalid attempt to spread non-iterable instance.\nIn order to be iterable, non-array objects must have a [Symbol.iterator]() method.")}()}function y(t,n){(null==n||n>t.length)&&(n=t.length);for(var e=0,r=new Array(n);e<n;e++)r[e]=t[e];return r}Number.isInteger||(Number.isInteger=function(t){return"number"==typeof t&&isFinite(t)&&Math.floor(t)===t}),Number.EPSILON||(Number.EPSILON=2220446049250313e-31);var g=d(Math.pow(10,-6));function d(t){var n=arguments.length>1&&void 0!==arguments[1]?arguments[1]:6;if(Number.isInteger(t))return t;var e=Math.pow(10,n);return Math.round((+t+Number.EPSILON)*e)/e}function p(t,n){var e=arguments.length>2&&void 0!==arguments[2]?arguments[2]:g;return Math.abs(t-n)<e}var m=Math.PI/180;function b(t){return t}function w(t,n,e){var r=1-e;return 3*e*r*(t*r+n*e)+e*e*e}function A(){var t=arguments.length>0&&void 0!==arguments[0]?arguments[0]:0,n=arguments.length>1&&void 0!==arguments[1]?arguments[1]:0,e=arguments.length>2&&void 0!==arguments[2]?arguments[2]:1,r=arguments.length>3&&void 0!==arguments[3]?arguments[3]:1;return t<0||t>1||e<0||e>1?null:p(t,n)&&p(e,r)?b:function(i){if(i<=0)return t>0?i*n/t:0===n&&e>0?i*r/e:0;if(i>=1)return e<1?1+(i-1)*(r-1)/(e-1):1===e&&t<1?1+(i-1)*(n-1)/(t-1):1;for(var u,o=0,a=1;o<a;){var l=w(t,e,u=(o+a)/2);if(p(i,l))break;l<i?o=u:a=u}return w(n,r,u)}}function _(){return 1}function x(t){return 1===t?1:0}function k(){var t=arguments.length>0&&void 0!==arguments[0]?arguments[0]:1,n=arguments.length>1&&void 0!==arguments[1]?arguments[1]:0;if(1===t){if(0===n)return x;if(1===n)return _}var e=1/t;return function(t){return t>=1?1:(t+=n*e)-t%e}}var S=Math.sin,O=Math.cos,j=Math.acos,E=Math.asin,M=Math.tan,P=Math.atan2,I=Math.PI/180,R=180/Math.PI,F=Math.sqrt,N=function(){function t(){var n=arguments.length>0&&void 0!==arguments[0]?arguments[0]:1,e=arguments.length>1&&void 0!==arguments[1]?arguments[1]:0,i=arguments.length>2&&void 0!==arguments[2]?arguments[2]:0,u=arguments.length>3&&void 0!==arguments[3]?arguments[3]:1,o=arguments.length>4&&void 0!==arguments[4]?arguments[4]:0,a=arguments.length>5&&void 0!==arguments[5]?arguments[5]:0;r(this,t),this.m=[n,e,i,u,o,a],this.i=null,this.w=null,this.s=null}return u(t,[{key:"determinant",get:function(){var t=this.m;return t[0]*t[3]-t[1]*t[2]}},{key:"isIdentity",get:function(){if(null===this.i){var t=this.m;this.i=1===t[0]&&0===t[1]&&0===t[2]&&1===t[3]&&0===t[4]&&0===t[5]}return this.i}},{key:"point",value:function(t,n){var e=this.m;return{x:e[0]*t+e[2]*n+e[4],y:e[1]*t+e[3]*n+e[5]}}},{key:"translateSelf",value:function(){var t=arguments.length>0&&void 0!==arguments[0]?arguments[0]:0,n=arguments.length>1&&void 0!==arguments[1]?arguments[1]:0;if(!t&&!n)return this;var e=this.m;return e[4]+=e[0]*t+e[2]*n,e[5]+=e[1]*t+e[3]*n,this.w=this.s=this.i=null,this}},{key:"rotateSelf",value:function(){var t=arguments.length>0&&void 0!==arguments[0]?arguments[0]:0;if(t%=360){var n=S(t*=I),e=O(t),r=this.m,i=r[0],u=r[1];r[0]=i*e+r[2]*n,r[1]=u*e+r[3]*n,r[2]=r[2]*e-i*n,r[3]=r[3]*e-u*n,this.w=this.s=this.i=null}return this}},{key:"scaleSelf",value:function(){var t=arguments.length>0&&void 0!==arguments[0]?arguments[0]:1,n=arguments.length>1&&void 0!==arguments[1]?arguments[1]:1;if(1!==t||1!==n){var e=this.m;e[0]*=t,e[1]*=t,e[2]*=n,e[3]*=n,this.w=this.s=this.i=null}return this}},{key:"skewSelf",value:function(t,n){if(n%=360,(t%=360)||n){var e=this.m,r=e[0],i=e[1],u=e[2],o=e[3];t&&(t=M(t*I),e[2]+=r*t,e[3]+=i*t),n&&(n=M(n*I),e[0]+=u*n,e[1]+=o*n),this.w=this.s=this.i=null}return this}},{key:"resetSelf",value:function(){var t=arguments.length>0&&void 0!==arguments[0]?arguments[0]:1,n=arguments.length>1&&void 0!==arguments[1]?arguments[1]:0,e=arguments.length>2&&void 0!==arguments[2]?arguments[2]:0,r=arguments.length>3&&void 0!==arguments[3]?arguments[3]:1,i=arguments.length>4&&void 0!==arguments[4]?arguments[4]:0,u=arguments.length>5&&void 0!==arguments[5]?arguments[5]:0,o=this.m;return o[0]=t,o[1]=n,o[2]=e,o[3]=r,o[4]=i,o[5]=u,this.w=this.s=this.i=null,this}},{key:"recomposeSelf",value:function(){var t=arguments.length>0&&void 0!==arguments[0]?arguments[0]:null,n=arguments.length>1&&void 0!==arguments[1]?arguments[1]:null,e=arguments.length>2&&void 0!==arguments[2]?arguments[2]:null,r=arguments.length>3&&void 0!==arguments[3]?arguments[3]:null,i=arguments.length>4&&void 0!==arguments[4]?arguments[4]:null;return this.isIdentity||this.resetSelf(),t&&(t.x||t.y)&&this.translateSelf(t.x,t.y),n&&this.rotateSelf(n),e&&(e.x&&this.skewSelf(e.x,0),e.y&&this.skewSelf(0,e.y)),!r||1===r.x&&1===r.y||this.scaleSelf(r.x,r.y),i&&(i.x||i.y)&&this.translateSelf(i.x,i.y),this}},{key:"decompose",value:function(){var t=arguments.length>0&&void 0!==arguments[0]?arguments[0]:0,n=arguments.length>1&&void 0!==arguments[1]?arguments[1]:0,e=this.m,r=e[0]*e[0]+e[1]*e[1],i=[[e[0],e[1]],[e[2],e[3]]],u=F(r);if(0===u)return{origin:{x:d(e[4]),y:d(e[5])},translate:{x:d(t),y:d(n)},scale:{x:0,y:0},skew:{x:0,y:0},rotate:0};i[0][0]/=u,i[0][1]/=u;var o=e[0]*e[3]-e[1]*e[2]<0;o&&(u=-u);var a=i[0][0]*i[1][0]+i[0][1]*i[1][1];i[1][0]-=i[0][0]*a,i[1][1]-=i[0][1]*a;var l=F(i[1][0]*i[1][0]+i[1][1]*i[1][1]);if(0===l)return{origin:{x:d(e[4]),y:d(e[5])},translate:{x:d(t),y:d(n)},scale:{x:d(u),y:0},skew:{x:0,y:0},rotate:0};i[1][0]/=l,i[1][1]/=l,a/=l;var s=0;return i[1][1]<0?(s=j(i[1][1])*R,i[0][1]<0&&(s=360-s)):s=E(i[0][1])*R,o&&(s=-s),a=P(a,F(i[0][0]*i[0][0]+i[0][1]*i[0][1]))*R,o&&(a=-a),{origin:{x:d(e[4]),y:d(e[5])},translate:{x:d(t),y:d(n)},scale:{x:d(u),y:d(l)},skew:{x:d(a),y:0},rotate:d(s)}}},{key:"clone",value:function(){var t=this.m;return new this.constructor(t[0],t[1],t[2],t[3],t[4],t[5])}},{key:"toString",value:function(){var t=arguments.length>0&&void 0!==arguments[0]?arguments[0]:" ";if(null===this.s){var n=this.m.map((function(t){return d(t)}));1===n[0]&&0===n[1]&&0===n[2]&&1===n[3]?this.s="translate("+n[4]+t+n[5]+")":this.s="matrix("+n.join(t)+")"}return this.s}}],[{key:"create",value:function(t){return t?Array.isArray(t)?f(this,v(t)):t instanceof this?t.clone():(new this).recomposeSelf(t.origin,t.rotate,t.skew,t.scale,t.translate):new this}}]),t}();function T(t,n,e){return t>=.5?e:n}function B(t,n,e){return 0===t||n===e?n:t*(e-n)+n}function q(t,n,e){var r=B(t,n,e);return r<=0?0:r}function D(t,n,e){var r=B(t,n,e);return r<=0?0:r>=1?1:r}function L(t,n,e){return 0===t?n:1===t?e:{x:B(t,n.x,e.x),y:B(t,n.y,e.y)}}function C(t,n,e){var r=function(t,n,e){return Math.round(B(t,n,e))}(t,n,e);return r<=0?0:r>=255?255:r}function V(t,n,e){return 0===t?n:1===t?e:{r:C(t,n.r,e.r),g:C(t,n.g,e.g),b:C(t,n.b,e.b),a:B(t,null==n.a?1:n.a,null==e.a?1:e.a)}}function G(t,n){for(var e=[],r=0;r<t;r++)e.push(n);return e}function z(t,n){if(--n<=0)return t;var e=(t=Object.assign([],t)).length;do{for(var r=0;r<e;r++)t.push(t[r])}while(--n>0);return t}var Y,$=function(){function t(n){r(this,t),this.list=n,this.length=n.length}return u(t,[{key:"setAttribute",value:function(t,n){for(var e=this.list,r=0;r<this.length;r++)e[r].setAttribute(t,n)}},{key:"removeAttribute",value:function(t){for(var n=this.list,e=0;e<this.length;e++)n[e].removeAttribute(t)}},{key:"style",value:function(t,n){for(var e=this.list,r=0;r<this.length;r++)e[r].style[t]=n}}]),t}(),U=/-./g,Q=function(t,n){return n.toUpperCase()};function H(t){return"function"==typeof t?t:T}function J(t){return t?"function"==typeof t?t:Array.isArray(t)?function(t){var n=arguments.length>1&&void 0!==arguments[1]?arguments[1]:b;if(!Array.isArray(t))return n;switch(t.length){case 1:return k(t[0])||n;case 2:return k(t[0],t[1])||n;case 4:return A(t[0],t[1],t[2],t[3])||n}return n}(t,null):function(t,n){var e=arguments.length>2&&void 0!==arguments[2]?arguments[2]:b;switch(t){case"linear":return b;case"steps":return k(n.steps||1,n.jump||0)||e;case"bezier":case"cubic-bezier":return A(n.x1||0,n.y1||0,n.x2||0,n.y2||0)||e}return e}(t.type,t.value,null):null}function Z(t,n,e){var r=arguments.length>3&&void 0!==arguments[3]&&arguments[3],i=n.length-1;if(t<=n[0].t)return r?[0,0,n[0].v]:n[0].v;if(t>=n[i].t)return r?[i,1,n[i].v]:n[i].v;var u,o=n[0],a=null;for(u=1;u<=i;u++){if(!(t>n[u].t)){a=n[u];break}o=n[u]}return null==a?r?[i,1,n[i].v]:n[i].v:o.t===a.t?r?[u,1,a.v]:a.v:(t=(t-o.t)/(a.t-o.t),o.e&&(t=o.e(t)),r?[u,t,e(t,o.v,a.v)]:e(t,o.v,a.v))}function K(t,n){var e=arguments.length>2&&void 0!==arguments[2]?arguments[2]:null;return t&&t.length?"function"!=typeof n?null:("function"!=typeof e&&(e=null),function(r){var i=Z(r,t,n);return null!=i&&e&&(i=e(i)),i}):null}function W(t,n){return t.t-n.t}function X(t,n,r,i,u){var o,a="@"===r[0],l="#"===r[0],s=Y[r],f=T;switch(a?(o=r.substr(1),r=o.replace(U,Q)):l&&(r=r.substr(1)),e(s)){case"function":if(f=s(i,u,Z,J,r,a,n,t),l)return f;break;case"string":f=K(i,H(s));break;case"object":if((f=K(i,H(s.i),s.f))&&"function"==typeof s.u)return s.u(n,f,r,a,t)}return f?function(t,n,e){if(arguments.length>3&&void 0!==arguments[3]&&arguments[3])return t instanceof $?function(r){return t.style(n,e(r))}:function(r){return t.style[n]=e(r)};if(Array.isArray(n)){var r=n.length;return function(i){var u=e(i);if(null==u)for(var o=0;o<r;o++)t[o].removeAttribute(n);else for(var a=0;a<r;a++)t[a].setAttribute(n,u)}}return function(r){var i=e(r);null==i?t.removeAttribute(n):t.setAttribute(n,i)}}(n,r,f,a):null}function tt(t,n,r,i){if(!i||"object"!==e(i))return null;var u=null,o=null;return Array.isArray(i)?o=function(t){if(!t||!t.length)return null;for(var n=0;n<t.length;n++)t[n].e&&(t[n].e=J(t[n].e));return t.sort(W)}(i):(o=i.keys,u=i.data||null),o?X(t,n,r,o,u):null}function nt(t,n,e){if(!e)return null;var r=[];for(var i in e)if(e.hasOwnProperty(i)){var u=tt(t,n,i,e[i]);u&&r.push(u)}return r.length?r:null}function et(t,n){if(!n.settings.duration||n.settings.duration<0)return null;var e,r,i,u,o,a=function(t,n){if(!n)return null;var e=[];if(Array.isArray(n))for(var r=n.length,i=0;i<r;i++){var u=n[i];if(2===u.length){var o=null;if("string"==typeof u[0])o=t.getElementById(u[0]);else if(Array.isArray(u[0])){o=[];for(var a=0;a<u[0].length;a++)if("string"==typeof u[0][a]){var l=t.getElementById(u[0][a]);l&&o.push(l)}o=o.length?1===o.length?o[0]:new $(o):null}if(o){var s=nt(t,o,u[1]);s&&(e=e.concat(s))}}}else for(var f in n)if(n.hasOwnProperty(f)){var c=t.getElementById(f);if(c){var h=nt(t,c,n[f]);h&&(e=e.concat(h))}}return e.length?e:null}(t,n.elements);return a?(e=a,r=n.settings,i=r.duration,u=e.length,o=null,function(t,n){var a=r.iterations||1/0,l=(r.alternate&&a%2==0)^r.direction>0?i:0,s=t%i,f=1+(t-s)/i;n*=r.direction,r.alternate&&f%2==0&&(n=-n);var c=!1;if(f>a)s=l,c=!0,-1===r.fill&&(s=r.direction>0?0:i);else if(n<0&&(s=i-s),s===o)return!1;o=s;for(var h=0;h<u;h++)e[h](s);return c}):null}function rt(t,n){if(Y=n,!t||!t.root||!Array.isArray(t.animations))return null;var e=function(t){for(var n=document.getElementsByTagName("svg"),e=0;e<n.length;e++)if(n[e].id===t.root&&!n[e].svgatorAnimation)return n[e].svgatorAnimation=!0,n[e];return null}(t);if(!e)return null;var r=t.animations.map((function(t){return et(e,t)})).filter((function(t){return!!t}));return r.length?{svg:e,animations:r,animationSettings:t.animationSettings,options:t.options||void 0}:null}function it(t){var n=arguments.length>1&&void 0!==arguments[1]?arguments[1]:null,e=arguments.length>2&&void 0!==arguments[2]?arguments[2]:Number,r=arguments.length>3&&void 0!==arguments[3]?arguments[3]:"undefined"!=typeof BigInt&&BigInt,i="0x"+(t.replace(/[^0-9a-fA-F]+/g,"")||27);return n&&r&&e.isSafeInteger&&!e.isSafeInteger(+i)?e(r(i))%n+n:+i}function ut(t,n,e){return!t||!e||n>t.length?t:t.substring(0,n)+ut(t.substring(n+1),e,e)}function ot(t){var n=arguments.length>1&&void 0!==arguments[1]?arguments[1]:27;return!t||t%n?t%n:[0,1].includes(n)?n:ot(t/n,n)}function at(t,n,e){if(t&&t.length){var r=it(e),i=ot(r)+5,u=ut(t,ot(r,5),i);return u=u.replace(/\x7c$/g,"==").replace(/\x2f$/g,"="),u=function(t,n,e){var r=+("0x"+t.substring(0,4));t=t.substring(4);for(var i=it(n,r)%r+e%27,u=[],o=0;o<t.length;o+=2)if("|"!==t[o]){var a=+("0x"+t[o]+t[o+1])-i;u.push(a)}else{var l=+("0x"+t.substring(o+1,o+1+4))-i;o+=3,u.push(l)}return String.fromCharCode.apply(String,u)}(u=(u=atob(u)).replace(/[\x41-\x5A]/g,""),n,r),u=JSON.parse(u)}}var lt=[{key:"alternate",def:!1},{key:"fill",def:1},{key:"iterations",def:0},{key:"direction",def:1},{key:"speed",def:1},{key:"fps",def:100}],st=function(){function t(n,e){var i=this,u=arguments.length>2&&void 0!==arguments[2]?arguments[2]:null;r(this,t),this._id=0,this._running=!1,this._rollingBack=!1,this._animations=n,this._settings=e,(!u||u<"2022-05-02")&&delete this._settings.speed,lt.forEach((function(t){i._settings[t.key]=i._settings[t.key]||t.def})),this.duration=e.duration,this.offset=e.offset||0,this.rollbackStartOffset=0}return u(t,[{key:"alternate",get:function(){return this._settings.alternate}},{key:"fill",get:function(){return this._settings.fill}},{key:"iterations",get:function(){return this._settings.iterations}},{key:"direction",get:function(){return this._settings.direction}},{key:"speed",get:function(){return this._settings.speed}},{key:"fps",get:function(){return this._settings.fps}},{key:"maxFiniteDuration",get:function(){return this.iterations>0?this.iterations*this.duration:this.duration}},{key:"_apply",value:function(t){for(var n=arguments.length>1&&void 0!==arguments[1]?arguments[1]:{},e=this._animations,r=e.length,i=0,u=0;u<r;u++)n[u]?i++:(n[u]=e[u](t,1),n[u]&&i++);return i}},{key:"_rollback",value:function(t){var n=this,e=1/0,r=null;this.rollbackStartOffset=t,this._rollingBack=!0,this._running=!0;this._id=window.requestAnimationFrame((function i(u){if(n._rollingBack){null==r&&(r=u);var o=Math.round(t-(u-r)*n.speed);if(o>n.duration&&e!==1/0){var a=!!n.alternate&&o/n.duration%2>1,l=o%n.duration;o=(l+=a?n.duration:0)||n.duration}var s=(n.fps?1e3/n.fps:0)*n.speed,f=Math.max(0,o);f<=e-s&&(n.offset=f,e=f,n._apply(f));var c=n.iterations>0&&-1===n.fill&&o>=n.maxFiniteDuration;(o<=0||n.offset<o||c)&&n.stop(),n._id=window.requestAnimationFrame(i)}}))}},{key:"_start",value:function(){var t=this,n=arguments.length>0&&void 0!==arguments[0]?arguments[0]:0,e=-1/0,r=null,i={};this._running=!0;var u=function u(o){null==r&&(r=o);var a=Math.round((o-r)*t.speed+n),l=(t.fps?1e3/t.fps:0)*t.speed;if(a>=e+l&&!t._rollingBack&&(t.offset=a,e=a,t._apply(a,i)===t._animations.length))return void t.pause(!0);t._id=window.requestAnimationFrame(u)};this._id=window.requestAnimationFrame(u)}},{key:"_pause",value:function(){this._id&&window.cancelAnimationFrame(this._id),this._running=!1}},{key:"play",value:function(){if(!this._running)return this._rollingBack?this._rollback(this.offset):this._start(this.offset)}},{key:"stop",value:function(){this._pause(),this.offset=0,this.rollbackStartOffset=0,this._rollingBack=!1,this._apply(0)}},{key:"reachedToEnd",value:function(){return this.iterations>0&&this.offset>=this.iterations*this.duration}},{key:"restart",value:function(){var t=arguments.length>0&&void 0!==arguments[0]&&arguments[0];this.stop(t),this.play(t)}},{key:"pause",value:function(){this._pause()}},{key:"reverse",value:function(){this.direction=-this.direction}}],[{key:"build",value:function(t,n){delete t.animationSettings,t.options=at(t.options,t.root,"5c7f360c"),t.animations.map((function(n){n.settings=at(n.s,t.root,"5c7f360c"),delete n.s,t.animationSettings||(t.animationSettings=n.settings)}));var e=t.version;if(!(t=rt(t,n)))return null;var r=t.options||{},i=new this(t.animations,t.animationSettings,e);return{el:t.svg,options:r,player:i}}},{key:"push",value:function(t){return this.build(t)}},{key:"init",value:function(){var t=this,n=window.__SVGATOR_PLAYER__&&window.__SVGATOR_PLAYER__["5c7f360c"];Array.isArray(n)&&n.splice(0).forEach((function(n){return t.build(n)}))}}]),t}();function ft(t){return d(t)+""}function ct(t){var n=arguments.length>1&&void 0!==arguments[1]?arguments[1]:" ";return t&&t.length?t.map(ft).join(n):""}function ht(t){if(!t)return"transparent";if(null==t.a||t.a>=1){var n=function(t){return 1===(t=parseInt(t).toString(16)).length?"0"+t:t},e=function(t){return t.charAt(0)===t.charAt(1)},r=n(t.r),i=n(t.g),u=n(t.b);return e(r)&&e(i)&&e(u)&&(r=r.charAt(0),i=i.charAt(0),u=u.charAt(0)),"#"+r+i+u}return"rgba("+t.r+","+t.g+","+t.b+","+t.a+")"}function vt(t){return t?"url(#"+t+")":"none"}!function(){for(var t=0,n=["ms","moz","webkit","o"],e=0;e<n.length&&!window.requestAnimationFrame;++e)window.requestAnimationFrame=window[n[e]+"RequestAnimationFrame"],window.cancelAnimationFrame=window[n[e]+"CancelAnimationFrame"]||window[n[e]+"CancelRequestAnimationFrame"];window.requestAnimationFrame||(window.requestAnimationFrame=function(n){var e=Date.now(),r=Math.max(0,16-(e-t)),i=window.setTimeout((function(){n(e+r)}),r);return t=e+r,i},window.cancelAnimationFrame=window.clearTimeout)}();var yt={f:null,i:function(t,n,e){return 0===t?n:1===t?e:{x:q(t,n.x,e.x),y:q(t,n.y,e.y)}},u:function(t,n){return function(e){var r=n(e);t.setAttribute("rx",ft(r.x)),t.setAttribute("ry",ft(r.y))}}},gt={f:null,i:function(t,n,e){return 0===t?n:1===t?e:{width:q(t,n.width,e.width),height:q(t,n.height,e.height)}},u:function(t,n){return function(e){var r=n(e);t.setAttribute("width",ft(r.width)),t.setAttribute("height",ft(r.height))}}};Object.freeze({M:2,L:2,Z:0,H:1,V:1,C:6,Q:4,T:2,S:4,A:7});var dt={},pt=null;function mt(t){var n=function(){if(pt)return pt;if("object"!==("undefined"==typeof document?"undefined":e(document))||!document.createElementNS)return{};var t=document.createElementNS("http://www.w3.org/2000/svg","svg");return t&&t.style?(t.style.position="absolute",t.style.opacity="0.01",t.style.zIndex="-9999",t.style.left="-9999px",t.style.width="1px",t.style.height="1px",pt={svg:t}):{}}().svg;if(!n)return function(t){return null};var r=document.createElementNS(n.namespaceURI,"path");r.setAttributeNS(null,"d",t),r.setAttributeNS(null,"fill","none"),r.setAttributeNS(null,"stroke","none"),n.appendChild(r);var i=r.getTotalLength();return function(t){var n=r.getPointAtLength(i*t);return{x:n.x,y:n.y}}}function bt(t){return dt[t]?dt[t]:dt[t]=mt(t)}function wt(t,n,e,r){if(!t||!r)return!1;var i=["M",t.x,t.y];if(n&&e&&(i.push("C"),i.push(n.x),i.push(n.y),i.push(e.x),i.push(e.y)),n?!e:e){var u=n||e;i.push("Q"),i.push(u.x),i.push(u.y)}return n||e||i.push("L"),i.push(r.x),i.push(r.y),i.join(" ")}function At(t,n,e,r){var i=arguments.length>4&&void 0!==arguments[4]?arguments[4]:1,u=wt(t,n,e,r),o=bt(u);try{return o(i)}catch(t){return null}}function _t(t,n,e){return t+(n-t)*e}function xt(t,n,e){var r=arguments.length>3&&void 0!==arguments[3]&&arguments[3],i={x:_t(t.x,n.x,e),y:_t(t.y,n.y,e)};return r&&(i.a=kt(t,n)),i}function kt(t,n){return Math.atan2(n.y-t.y,n.x-t.x)}function St(t,n,e,r){var i=1-r;return i*i*t+2*i*r*n+r*r*e}function Ot(t,n,e,r){return 2*(1-r)*(n-t)+2*r*(e-n)}function jt(t,n,e,r){var i=arguments.length>4&&void 0!==arguments[4]&&arguments[4],u=At(t,n,null,e,r);return u||(u={x:St(t.x,n.x,e.x,r),y:St(t.y,n.y,e.y,r)}),i&&(u.a=Et(t,n,e,r)),u}function Et(t,n,e,r){return Math.atan2(Ot(t.y,n.y,e.y,r),Ot(t.x,n.x,e.x,r))}function Mt(t,n,e,r,i){var u=i*i;return i*u*(r-t+3*(n-e))+3*u*(t+e-2*n)+3*i*(n-t)+t}function Pt(t,n,e,r,i){var u=1-i;return 3*(u*u*(n-t)+2*u*i*(e-n)+i*i*(r-e))}function It(t,n,e,r,i){var u=arguments.length>5&&void 0!==arguments[5]&&arguments[5],o=At(t,n,e,r,i);return o||(o={x:Mt(t.x,n.x,e.x,r.x,i),y:Mt(t.y,n.y,e.y,r.y,i)}),u&&(o.a=Rt(t,n,e,r,i)),o}function Rt(t,n,e,r,i){return Math.atan2(Pt(t.y,n.y,e.y,r.y,i),Pt(t.x,n.x,e.x,r.x,i))}function Ft(t,n,e){var r=arguments.length>3&&void 0!==arguments[3]&&arguments[3];if(Tt(n)){if(Bt(e))return jt(n,e.start,e,t,r)}else if(Tt(e)){if(qt(n))return jt(n,n.end,e,t,r)}else{if(qt(n))return Bt(e)?It(n,n.end,e.start,e,t,r):jt(n,n.end,e,t,r);if(Bt(e))return jt(n,e.start,e,t,r)}return xt(n,e,t,r)}function Nt(t,n,e){var r=Ft(t,n,e,!0);return r.a=function(t){return arguments.length>1&&void 0!==arguments[1]&&arguments[1]?t+Math.PI:t}(r.a)/m,r}function Tt(t){return!t.type||"corner"===t.type}function Bt(t){return null!=t.start&&!Tt(t)}function qt(t){return null!=t.end&&!Tt(t)}var Dt=new N;var Lt={f:ft,i:B},Ct={f:ft,i:D};function Vt(t,n,e){return t.map((function(t){return function(t,n,e){var r=t.v;if(!r||"g"!==r.t||r.s||!r.v||!r.r)return t;var i=e.getElementById(r.r),u=i&&i.querySelectorAll("stop")||[];return r.s=r.v.map((function(t,n){var e=u[n]&&u[n].getAttribute("offset");return{c:t,o:e=d(parseInt(e)/100)}})),delete r.v,t}(t,0,e)}))}var Gt={gt:"gradientTransform",c:{x:"cx",y:"cy"},rd:"r",f:{x:"x1",y:"y1"},to:{x:"x2",y:"y2"}};function zt(t,n,r,i,u,o,a,l){return Vt(t,0,l),n=function(t,n,e){for(var r,i,u,o=t.length-1,a={},l=0;l<=o;l++)(r=t[l]).e&&(r.e=n(r.e)),r.v&&"g"===(i=r.v).t&&i.r&&(u=e.getElementById(i.r))&&(a[i.r]={e:u,s:u.querySelectorAll("stop")});return a}(t,i,l),function(i){var u=r(i,t,Yt);if(!u)return"none";if("c"===u.t)return ht(u.v);if("g"===u.t){if(!n[u.r])return vt(u.r);var o=n[u.r];return function(t,n){for(var e=t.s,r=e.length;r<n.length;r++){var i=e[e.length-1].cloneNode();i.id=Qt(i.id),t.e.appendChild(i),e=t.s=t.e.querySelectorAll("stop")}for(var u=0,o=e.length,a=n.length-1;u<o;u++)e[u].setAttribute("stop-color",ht(n[Math.min(u,a)].c)),e[u].setAttribute("offset",n[Math.min(u,a)].o)}(o,u.s),Object.keys(Gt).forEach((function(t){if(void 0!==u[t])if("object"!==e(Gt[t])){var n,r="gt"===t?(n=u[t],Array.isArray(n)?"matrix("+n.join(" ")+")":""):u[t],i=Gt[t];o.e.setAttribute(i,r)}else Object.keys(Gt[t]).forEach((function(n){if(void 0!==u[t][n]){var e=u[t][n],r=Gt[t][n];o.e.setAttribute(r,e)}}))})),vt(u.r)}return"none"}}function Yt(t,e,r){if(0===t)return e;if(1===t)return r;if(e&&r){var i=e.t;if(i===r.t)switch(e.t){case"c":return{t:i,v:V(t,e.v,r.v)};case"g":if(e.r===r.r){var u={t:i,s:$t(t,e.s,r.s),r:e.r};return e.gt&&r.gt&&(u.gt=function(t,n,e){var r=n.length;if(r!==e.length)return T(t,n,e);for(var i=new Array(r),u=0;u<r;u++)i[u]=B(t,n[u],e[u]);return i}(t,e.gt,r.gt)),e.c?(u.c=L(t,e.c,r.c),u.rd=q(t,e.rd,r.rd)):e.f&&(u.f=L(t,e.f,r.f),u.to=L(t,e.to,r.to)),u}}if("c"===e.t&&"g"===r.t||"c"===r.t&&"g"===e.t){var o="c"===e.t?e:r,a="g"===e.t?n({},e):n({},r),l=a.s.map((function(t){return{c:o.v,o:t.o}}));return a.s="c"===e.t?$t(t,l,a.s):$t(t,a.s,l),a}}return T(t,e,r)}function $t(t,n,e){if(n.length===e.length)return n.map((function(n,r){return Ut(t,n,e[r])}));for(var r=Math.max(n.length,e.length),i=[],u=0;u<r;u++){var o=Ut(t,n[Math.min(u,n.length-1)],e[Math.min(u,e.length-1)]);i.push(o)}return i}function Ut(t,n,e){return{o:D(t,n.o,e.o||0),c:V(t,n.c,e.c||{})}}function Qt(t){return t.replace(/-fill-([0-9]+)$/,(function(t,n){return"-fill-"+(+n+1)}))}var Ht={fill:zt,"fill-opacity":Ct,stroke:zt,"stroke-opacity":Ct,"stroke-width":Lt,"stroke-dashoffset":{f:ft,i:B},"stroke-dasharray":{f:function(t){var n=arguments.length>1&&void 0!==arguments[1]?arguments[1]:" ";return t&&t.length>0&&(t=t.map((function(t){return d(t,4)}))),ct(t,n)},i:function(t,n,e){var r,i,u,o=n.length,a=e.length;if(o!==a)if(0===o)n=G(o=a,0);else if(0===a)a=o,e=G(o,0);else{var l=(u=(r=o)*(i=a)/function(t,n){for(var e;n;)e=n,n=t%n,t=e;return t||1}(r,i))<0?-u:u;n=z(n,Math.floor(l/o)),e=z(e,Math.floor(l/a)),o=a=l}for(var s=[],f=0;f<o;f++)s.push(d(q(t,n[f],e[f])));return s}},opacity:Ct,transform:function(t,n,r,i){if(!(t=function(t,n){if(!t||"object"!==e(t))return null;var r=!1;for(var i in t)t.hasOwnProperty(i)&&(t[i]&&t[i].length?(t[i].forEach((function(t){t.e&&(t.e=n(t.e))})),r=!0):delete t[i]);return r?t:null}(t,i)))return null;var u=function(e,i,u){var o=arguments.length>3&&void 0!==arguments[3]?arguments[3]:null;return t[e]?r(i,t[e],u):n&&n[e]?n[e]:o};return n&&n.a&&t.o?function(n){var e=r(n,t.o,Nt);return Dt.recomposeSelf(e,u("r",n,B,0)+e.a,u("k",n,L),u("s",n,L),u("t",n,L)).toString()}:function(t){return Dt.recomposeSelf(u("o",t,Ft,null),u("r",t,B,0),u("k",t,L),u("s",t,L),u("t",t,L)).toString()}},r:Lt,"#size":gt,"#radius":yt,_:function(t,n){if(Array.isArray(t))for(var e=0;e<t.length;e++)this[t[e]]=n;else this[t]=n}},Jt=function(t){!function(t,n){if("function"!=typeof n&&null!==n)throw new TypeError("Super expression must either be null or a function");t.prototype=Object.create(n&&n.prototype,{constructor:{value:t,writable:!0,configurable:!0}}),n&&l(t,n)}(o,t);var n,e,i=(n=o,e=s(),function(){var t,r=a(n);if(e){var i=a(this).constructor;t=Reflect.construct(r,arguments,i)}else t=r.apply(this,arguments);return c(this,t)});function o(){return r(this,o),i.apply(this,arguments)}return u(o,null,[{key:"build",value:function(t){var n=h(a(o),"build",this).call(this,t,Ht);if(!n)return null;n.el,n.options,function(t,n,e){t.play()}(n.player)}}]),o}(st);return Jt.init(),Jt}));
(function(s,i,o,w,d,a,b){w[o]=w[o]||{};w[o][s]=w[o][s]||[];w[o][s].push(i);})('5c7f360c',{"root":"epdMzOUXvhE1","version":"2022-05-04","animations":[{"elements":{"epdMzOUXvhE12":{"transform":{"data":{"t":{"x":-393.289505,"y":-462.418503}},"keys":{"o":[{"t":100,"v":{"x":393.289505,"y":462.418503,"type":"corner"}},{"t":600,"v":{"x":393.289505,"y":467.037237,"type":"corner"}}]}}},"epdMzOUXvhE13":{"transform":{"keys":{"o":[{"t":100,"v":{"x":-208.027,"y":-198.405,"type":"corner"}},{"t":600,"v":{"x":-208.027,"y":-193.786269,"type":"corner"}}]}}},"epdMzOUXvhE27":{"transform":{"keys":{"o":[{"t":100,"v":{"x":-208.027,"y":-198.405,"type":"corner"}},{"t":600,"v":{"x":-208.027,"y":-193.786269,"type":"corner"}}]}}},"epdMzOUXvhE29":{"transform":{"data":{"r":-26.529845,"t":{"x":352.814,"y":422.778}},"keys":{"o":[{"t":0,"v":{"x":-359.716,"y":3.70199,"type":"corner"}},{"t":700,"v":{"x":-377.364634,"y":15.016903,"type":"corner"}},{"t":3000,"v":{"x":-359.810963,"y":10.489917,"type":"corner"}}]}}},"epdMzOUXvhE30":{"transform":{"keys":{"o":[{"t":0,"v":{"x":-208.027,"y":-198.405,"type":"corner"}},{"t":700,"v":{"x":-225.675634,"y":-187.090087,"type":"corner"}},{"t":3000,"v":{"x":-208.121963,"y":-191.617073,"type":"corner"}}]}}},"epdMzOUXvhE32":{"transform":{"keys":{"o":[{"t":0,"v":{"x":-208.027,"y":-198.405,"type":"corner"}},{"t":700,"v":{"x":-225.675634,"y":-187.090087,"type":"corner"}},{"t":3000,"v":{"x":-208.121963,"y":-191.617073,"type":"corner"}}]}}},"epdMzOUXvhE33":{"transform":{"keys":{"o":[{"t":0,"v":{"x":-208.027,"y":-198.405,"type":"corner"}},{"t":700,"v":{"x":-225.675634,"y":-187.090087,"type":"corner"}},{"t":2600,"v":{"x":-208.121963,"y":-191.617073,"type":"corner"}}]}}},"epdMzOUXvhE34":{"transform":{"keys":{"o":[{"t":0,"v":{"x":-208.027,"y":-198.405,"type":"corner"}},{"t":700,"v":{"x":-225.675634,"y":-187.090087,"type":"corner"}},{"t":2600,"v":{"x":-208.121963,"y":-191.617073,"type":"corner"}}]}}},"epdMzOUXvhE49":{"transform":{"data":{"s":{"x":1.009859,"y":1}},"keys":{"o":[{"t":0,"v":{"x":-227.164009,"y":-247.200151,"type":"corner"}},{"t":500,"v":{"x":-78.807014,"y":-110.110198,"type":"corner"}}]}}},"epdMzOUXvhE81":{"transform":{"keys":{"o":[{"t":0,"v":{"x":-208.027,"y":-198.405,"type":"corner"}},{"t":700,"v":{"x":-225.675634,"y":-187.090087,"type":"corner"}},{"t":2600,"v":{"x":-208.121963,"y":-191.617073,"type":"corner"}}]}}},"epdMzOUXvhE82":{"transform":{"keys":{"o":[{"t":0,"v":{"x":-208.027,"y":-198.405,"type":"corner"}},{"t":700,"v":{"x":-225.675634,"y":-187.090087,"type":"corner"}},{"t":2600,"v":{"x":-208.121963,"y":-191.617073,"type":"corner"}}]}}}},"s":"MYDA1ZGQyNzlGYmJjY1TJjOWI4VmNiYzBjNlBEjNTc5VTkxOGE4Nzg3BODc4Mzc5YmJjMGM5YWmNiYWNiYzBjNlZjNTDc5OTE4OFA4Mzc5YzBXjYmJjYzliOGNiYzBjGNmM1Y2E3OTkxODg4MPzc5YmRDYzBjM2MzNzTk5MTg4ODM3OWI4RGMJzY2JiY2M5YzViOGNiBYmM3OTkxYmRiOFJjML2NhYmM4M0I3OWNhYzNdiY2JjYmI3OTkxODgF4Mzc5TmJkSWM3Y2E3TOTkxODg4Nzg3ZDQ/"}],"options":"MNDAxMDg4MmY4MDgxNmKU3ZjgxMmY0NzJmNzkB3YzZlNzFJMmY4YQ|"},'__SVGATOR_PLAYER__',window,document)
]]></script>
</svg>
